#!OML:ASF F:\VICON\USERDATA\INSTALL\rory3\rory3.ASF
:FULLY-SPECIFIED
:DEGREES
325
root 5.28432 18.3071 12.4637 333.671 -85.2764 23.4827
lowerback 9.05626 -4.98478 -3.11896
upperback -0.193197 -6.84217 3.91533
thorax -4.41225 -3.31287 6.68756
lowerneck 5.7994 -16.2838 -15.0611
upperneck 33.87 -32.7829 11.8755
head 15.9019 -16.2777 2.28781
rclavicle -4.63168e-014 9.54166e-015
rhumerus -43.8845 -20.886 -69.5692
rradius 29.762
rwrist 4.9276
rhand -18.0658 6.86588
rfingers 7.12502
rthumb 8.2068 -22.9547
lclavicle -4.63168e-014 9.54166e-015
lhumerus -24.8897 -2.08919 90.7725
lradius 29.748
lwrist -5.42271
lhand -19.2823 25.2426
lfingers 7.12502
lthumb 7.03269 55.1058
rfemur -14.432 0.192461 23.1604
rtibia 32.138
rfoot -2.86604 -0.0350181
rtoes 14.7978
lfemur 6.71528 1.31473 -16.558
ltibia 40.2198
lfoot 28.7944 -13.4333
ltoes -6.27826
326
root 5.41333 18.2932 12.4768 332.321 -84.8917 24.8531
lowerback 9.07239 -5.04274 -3.5073
upperback -0.192324 -6.96153 3.85126
thorax -4.36678 -3.36502 6.84929
lowerneck 5.63491 -16.3705 -14.8498
upperneck 34.0238 -32.7774 11.5308
head 15.875 -16.2596 2.12233
rclavicle 4.50744e-014 6.36111e-015
rhumerus -44.0006 -20.8186 -69.6754
rradius 29.6675
rwrist 4.82409
rhand -16.8743 6.32759
rfingers 7.12502
rthumb 9.35663 -23.4448
lclavicle 4.50744e-014 6.36111e-015
lhumerus -24.4659 -2.47658 90.9178
lradius 30.1076
lwrist -5.32977
lhand -19.1674 25.1413
lfingers 7.12502
lthumb 7.14357 55.0007
rfemur -15.0296 -0.0567246 22.7547
rtibia 32.378
rfoot -2.74949 0.0175124
rtoes 13.7098
lfemur 7.87279 0.937865 -17.0435
ltibia 38.0625
lfoot 29.573 -13.4114
ltoes -7.48911
327
root 5.54496 18.2783 12.4935 332.397 -84.5574 24.8416
lowerback 9.06652 -5.12084 -3.70593
upperback -0.211956 -7.08675 3.8126
thorax -4.34797 -3.42292 6.93163
lowerneck 5.64057 -16.4051 -14.8542
upperneck 34.0274 -32.8017 11.4784
head 15.8674 -16.2726 2.09898
rclavicle 6.24184e-014 9.54166e-015
rhumerus -44.1642 -20.6985 -69.8145
rradius 29.667
rwrist 4.71818
rhand -16.8067 6.45054
rfingers 7.12502
rthumb 9.42186 -23.3189
lclavicle 6.24184e-014 9.54166e-015
lhumerus -24.0643 -2.8817 91.0859
lradius 30.4751
lwrist -5.13261
lhand -19.1873 25.1012
lfingers 7.12502
lthumb 7.12437 54.9613
rfemur -15.6575 -0.0669774 22.459
rtibia 32.5681
rfoot -2.63574 -0.193535
rtoes 14.1299
lfemur 8.93183 0.422375 -17.4423
ltibia 35.9435
lfoot 30.0668 -12.8791
ltoes -6.58714
328
root 5.68311 18.2517 12.5113 332.314 -84.224 25.0527
lowerback 9.02313 -5.21535 -3.93389
upperback -0.236166 -7.23579 3.78419
thorax -4.30402 -3.49307 7.03878
lowerneck 5.6959 -16.3892 -14.9664
upperneck 33.8882 -32.8139 11.6747
head 15.8632 -16.2802 2.18702
rclavicle -9.45718e-014 4.13472e-014
rhumerus -44.2382 -20.6623 -69.9124
rradius 29.5861
rwrist 5.00855
rhand -16.5665 6.58431
rfingers 7.12502
rthumb 9.65361 -23.1745
lclavicle -9.45718e-014 4.13472e-014
lhumerus -23.6605 -3.22278 91.243
lradius 30.8876
lwrist -4.96833
lhand -19.343 24.9377
lfingers 7.12502
lthumb 6.97403 54.8028
rfemur -16.4174 -0.357967 22.2692
rtibia 32.7425
rfoot -2.48674 -0.324895
rtoes 9.83485
lfemur 9.83644 -0.167032 -17.8927
ltibia 33.8748
lfoot 29.9964 -12.5765
ltoes -4.61989
329
root 5.82753 18.2116 12.5296 332.268 -83.8825 25.2591
lowerback 8.98726 -5.2945 -4.17328
upperback -0.282692 -7.36496 3.7669
thorax -4.28682 -3.55135 7.16447
lowerneck 5.81414 -16.3827 -15.0822
upperneck 33.7173 -32.8404 11.8793
head 15.8363 -16.2992 2.28443
rclavicle -5.9039e-014 1.11319e-014
rhumerus -44.3709 -20.6415 -69.9708
rradius 29.5809
rwrist 5.46675
rhand -16.1171 6.3588
rfingers 7.12502
rthumb 10.0872 -23.3794
lclavicle -5.9039e-014 1.11319e-014
lhumerus -23.2494 -3.64299 91.3961
lradius 31.2575
lwrist -4.73377
lhand -19.2113 24.8017
lfingers 7.12502
lthumb 7.10117 54.6626
rfemur -17.2079 -0.720922 22.1236
rtibia 32.9594
rfoot -2.40405 -0.445783
rtoes 3.18813
lfemur 10.68 -0.786756 -18.4126
ltibia 31.7797
lfoot 28.9504 -13.0409
ltoes -4.74772
330
root 5.97366 18.1805 12.5474 332.558 -83.5216 25.1038
lowerback 8.9911 -5.36044 -4.3543
upperback -0.291915 -7.47232 3.73532
thorax -4.2642 -3.60133 7.24229
lowerneck 5.75091 -16.4419 -15.0545
upperneck 33.6941 -32.8949 11.872
head 15.8399 -16.3095 2.25914
rclavicle -1.13804e-014 -9.54166e-015
rhumerus -44.3698 -20.3784 -70.2543
rradius 29.6285
rwrist 5.49758
rhand -16.3031 6.0504
rfingers 7.12502
rthumb 9.90775 -23.6965
lclavicle -1.13804e-014 -9.54166e-015
lhumerus -22.768 -4.27259 91.5385
lradius 31.6731
lwrist -4.34793
lhand -19.1263 24.8104
lfingers 7.12502
lthumb 7.18326 54.6685
rfemur -17.9053 -0.692762 21.8126
rtibia 33.207
rfoot -2.41179 -0.794227
rtoes 4.83328
lfemur 11.5537 -1.39343 -18.8976
ltibia 29.6311
lfoot 27.2141 -13.558
ltoes -4.65311
331
root 6.11746 18.1721 12.5642 331.291 -83.031 26.6313
lowerback 8.9273 -5.41047 -4.80102
upperback -0.360983 -7.58381 3.67093
thorax -4.23619 -3.64575 7.42917
lowerneck 5.6697 -16.5219 -14.9821
upperneck 33.7185 -32.9566 11.7744
head 15.8391 -16.3219 2.19266
rclavicle -7.90666e-014 2.8625e-014
rhumerus -44.3783 -20.1761 -70.4338
rradius 29.6606
rwrist 5.39169
rhand -16.3046 6.1129
rfingers 7.12502
rthumb 9.90634 -23.634
lclavicle -7.90666e-014 2.8625e-014
lhumerus -22.3489 -4.736 91.6905
lradius 32.1852
lwrist -4.13951
lhand -18.8454 25.1235
lfingers 7.12502
lthumb 7.45436 54.9721
rfemur -18.8148 -0.48694 21.1202
rtibia 33.4499
rfoot -2.29534 -1.22118
rtoes 10.6397
lfemur 12.2773 -2.01264 -19.6273
ltibia 27.4628
lfoot 25.1415 -14.1966
ltoes -4.28777
332
root 6.2649 18.1646 12.5816 330.124 -82.6732 28.1054
lowerback 8.84643 -5.46699 -5.17721
upperback -0.436015 -7.69551 3.62162
thorax -4.21067 -3.6916 7.59074
lowerneck 5.59181 -16.5479 -15.0083
upperneck 33.7212 -32.9828 11.7855
head 15.8695 -16.3237 2.18218
rclavicle 6.56486e-014 -2.22639e-014
rhumerus -44.4344 -20.1592 -70.5134
rradius 29.7667
rwrist 5.5716
rhand -16.1926 6.09864
rfingers 7.12502
rthumb 10.0144 -23.6431
lclavicle 6.56486e-014 -2.22639e-014
lhumerus -21.9621 -5.0408 91.7779
lradius 32.7189
lwrist -4.04238
lhand -18.3653 24.8325
lfingers 7.12502
lthumb 7.91782 54.6642
rfemur -19.8042 -0.415094 20.522
rtibia 33.6385
rfoot -2.04229 -1.30988
rtoes 13.1744
lfemur 12.9236 -2.49956 -20.3021
ltibia 25.3869
lfoot 22.7545 -15.1033
ltoes -5.04944
333
root 6.42323 18.1471 12.6043 331.502 -82.4343 26.7529
lowerback 9.07773 -5.55136 -5.11204
upperback -0.402818 -7.81044 3.63651
thorax -4.29274 -3.74729 7.60723
lowerneck 5.59183 -16.5742 -15.1125
upperneck 33.6015 -33.0386 11.9498
head 15.8854 -16.3417 2.23975
rclavicle 1.44119e-015 -1.90833e-014
rhumerus -44.3652 -20.0397 -70.722
rradius 29.8447
rwrist 5.66598
rhand -16.3491 6.02632
rfingers 7.12502
rthumb 9.86338 -23.7226
lclavicle 1.44119e-015 -1.90833e-014
lhumerus -21.4837 -5.24039 91.856
lradius 33.1288
lwrist -4.12153
lhand -18.3218 24.5445
lfingers 7.12502
lthumb 7.9598 54.3747
rfemur -20.4165 -0.590037 20.3429
rtibia 33.7147
rfoot -1.8532 -1.31693
rtoes 14.9305
lfemur 13.7579 -3.02379 -20.5865
ltibia 23.618
lfoot 19.8615 -16.1783
ltoes -7.82365
334
root 6.58655 18.1289 12.6296 332.715 -82.1443 25.6295
lowerback 9.2652 -5.62052 -5.02477
upperback -0.374791 -7.90113 3.61875
thorax -4.36734 -3.79139 7.57017
lowerneck 5.62765 -16.6572 -15.1024
upperneck 33.4168 -33.1512 12.1036
head 15.8455 -16.3755 2.27756
rclavicle -5.20816e-014 -3.18055e-015
rhumerus -44.3426 -20.0389 -70.8697
rradius 30.032
rwrist 5.7788
rhand -16.2228 6.14939
rfingers 7.12502
rthumb 9.98525 -23.5938
lclavicle -5.20816e-014 -3.18055e-015
lhumerus -20.9953 -5.59596 91.9556
lradius 33.5647
lwrist -4.02549
lhand -18.677 24.5643
lfingers 7.12502
lthumb 7.61692 54.4071
rfemur -21.0424 -0.595667 20.1166
rtibia 33.6766
rfoot -1.62474 -1.49908
rtoes 15.2905
lfemur 14.4201 -3.67405 -20.9474
ltibia 22.3357
lfoot 16.5298 -17.0836
ltoes -13.9826
335
root 6.74984 18.1179 12.6533 332.296 -81.8128 26.3154
lowerback 9.317 -5.67478 -5.24534
upperback -0.384461 -8.00004 3.58313
thorax -4.36607 -3.83506 7.67065
lowerneck 5.58988 -16.7389 -15.0303
upperneck 33.2029 -33.2264 12.2472
head 15.7811 -16.3821 2.3069
rclavicle 2.77305e-014 9.54166e-015
rhumerus -44.3918 -20.0296 -70.9666
rradius 30.4775
rwrist 5.86327
rhand -16.1286 6.24452
rfingers 7.12502
rthumb 10.0761 -23.4942
lclavicle 2.77305e-014 9.54166e-015
lhumerus -20.5103 -6.09453 92.0727
lradius 34.0934
lwrist -3.52505
lhand -18.835 24.4871
lfingers 7.12502
lthumb 7.46445 54.3355
rfemur -21.836 -0.597858 19.6513
rtibia 33.6025
rfoot -1.28472 -1.55377
rtoes 14.1698
lfemur 14.8071 -4.06984 -21.518
ltibia 21.376
lfoot 13.5789 -17.0951
ltoes -19.104
336
root 6.91611 18.1058 12.674 331.484 -81.5528 27.3368
lowerback 9.48669 -5.69506 -5.55242
upperback -0.412729 -8.06828 3.56842
thorax -4.4401 -3.85697 7.85609
lowerneck 5.53559 -16.777 -15.086
upperneck 33.1818 -33.3034 12.3289
head 15.8309 -16.4031 2.31543
rclavicle -1.98785e-016 -9.54166e-015
rhumerus -44.3817 -19.9129 -71.1006
rradius 30.8102
rwrist 5.81411
rhand -16.3936 6.37432
rfingers 7.12502
rthumb 9.82046 -23.3767
lclavicle -1.98785e-016 -9.54166e-015
lhumerus -20.0571 -6.41243 92.2049
lradius 34.5542
lwrist -3.25654
lhand -18.9691 24.6601
lfingers 7.12502
lthumb 7.33494 54.513
rfemur -22.5839 -0.799795 19.2116
rtibia 33.4858
rfoot -0.924731 -1.43806
rtoes 14.078
lfemur 15.0468 -4.06486 -22.0658
ltibia 20.611
lfoot 10.7229 -15.8883
ltoes -20.3625
337
root 7.08216 18.0863 12.6961 329.91 -81.3071 29.0782
lowerback 9.69906 -5.68065 -5.9613
upperback -0.429684 -8.10607 3.52626
thorax -4.52092 -3.86089 8.07124
lowerneck 5.40852 -16.861 -15.017
upperneck 33.2747 -33.3984 12.2128
head 15.8767 -16.4244 2.22651
rclavicle 1.95803e-014 1.59028e-015
rhumerus -44.2912 -19.8501 -71.1988
rradius 30.9901
rwrist 5.89096
rhand -16.1132 6.2905
rfingers 7.12502
rthumb 10.0909 -23.4475
lclavicle 1.95803e-014 1.59028e-015
lhumerus -19.6174 -6.53854 92.2897
lradius 34.9494
lwrist -3.34544
lhand -19.0165 24.9246
lfingers 7.12502
lthumb 7.2892 54.779
rfemur -23.2551 -0.935576 18.6459
rtibia 33.2997
rfoot -0.465381 -1.3408
rtoes 14.8489
lfemur 15.1344 -3.89071 -22.7369
ltibia 19.9242
lfoot 8.077 -14.4579
ltoes -19.5934
